<svg xmlns="http://www.w3.org/2000/svg" viewBox="0 0 437.22 630.19"><defs><style>.cls-1{fill:#303a82;}.cls-2{fill:#5864be;}</style></defs><g id="Layer_2" data-name="Layer 2"><g id="Layer_1-2" data-name="Layer 1"><path class="cls-1" d="M10.12,172.76S-62.34-29.69,180.59,3.72C180.59,3.72,241.78,211.67,10.12,172.76Z"/><path class="cls-2" d="M142.87,318l.18-122.3H266.88s170.34-5.89,170.34,181.61v151H318.77V379.62s3.54-62-82.55-62c-76.52,0-90.3.31-93.35.31C142.61,318,142.87,318.21,142.87,318Z"/><path class="cls-1" d="M120.55,195.63H0V463.55a77.84,77.84,0,0,0,3.83,24.22c12.35,37.88,58.23,142.42,188.26,142.42H437.22v-119H217s-97.23,5.45-96.44-98.3S120.55,195.63,120.55,195.63Z"/></g></g></svg>